<svg width="547" height="170" viewBox="0 0 547 170" fill="none" xmlns="http://www.w3.org/2000/svg">
<path d="M131.086 114.846C166.583 130.74 206.196 136.202 245.579 139.363C283.202 142.383 323.194 143.786 360.072 135.888C380.72 131.466 423.099 133.124 441.761 124.407C466.171 113.006 504.48 103.172 519.21 81.313C533.939 59.4538 530.1 44.3979 522.714 39.221C510.898 30.9378 473.056 24.5682 467.53 24.4432C444.111 20.5433 412.061 22.2484 384.503 24.4166C304.004 18.947 260.98 33.1457 180.85 39.8002C139.188 43.2601 91.8217 46.771 52.8212 61.9694C42.7344 65.9002 31.6939 71.4073 27.2394 80.8577C19.7879 96.6663 37.487 113.407 51.4873 120.934C70.6221 131.221 93.1747 135.91 115.038 138.997C154.116 144.515 194.177 145.681 233.653 145.073C300.918 144.037 367.668 135.595 433.77 125.595C460.48 121.554 488.557 118.185 514.441 110.879C525.088 107.874 534.502 104.072 537.392 94.0946C546.806 61.5879 502.09 37.6352 472.931 30.079C420.089 16.3856 361.705 15.3358 307.214 13.649C256.554 12.0809 204.421 11.1147 154.107 17.3531C131.925 20.1036 119.324 22.9778 98.9868 29.6356C83.9598 34.5549 64.5552 41.2119 53.721 52.3622C45.392 60.9343 45.2253 72.5974 51.5355 82.1707C64.6683 102.095 93.3101 111.918 117.07 118.092C165.526 130.682 217.558 134.213 267.685 136.216C314.846 138.1 361.719 137.139 408.641 133.085C435.792 130.739 462.74 126.778 489.776 123.724" stroke="#EB3232" stroke-width="3" stroke-linecap="round"/>
</svg>
