<svg width="46" height="11" viewBox="0 0 46 11" fill="none" xmlns="http://www.w3.org/2000/svg">
<path d="M23.0452 10.9247C23.7602 10.9768 24.1762 10.5831 24.3053 10.0928C29.6768 9.83918 35.0443 9.49723 40.4051 9.06771C42.125 8.92984 42.1871 6.52677 40.4051 6.53762C39.2099 6.54414 38.0148 6.55101 36.82 6.55716C39.4241 6.29952 42.027 6.02922 44.6266 5.73178C46.3151 5.53855 46.4243 3.1333 44.6266 3.20133C40.061 3.37394 35.495 3.44233 30.9303 3.42677C33.8723 3.14814 36.8109 2.82609 39.7451 2.45374C41.4753 2.23446 40.7384 -0.204074 39.0205 0.0137623C26.8635 1.55635 14.6076 2.23916 2.33929 2.10636C0.554835 2.08682 0.624725 4.4823 2.33929 4.63645C7.16001 5.06995 11.9886 5.38946 16.8209 5.61164C11.6582 5.91777 6.48964 6.14899 1.31617 6.29844C-0.437274 6.34874 -0.440169 8.7775 1.31617 8.82888C3.19946 8.88352 5.08277 8.92695 6.96565 8.96458C6.74316 9.69733 7.15547 10.6056 8.21911 10.59C13.1701 10.4525 18.107 10.5643 23.0452 10.9247Z" fill="#DBBC74"/>
</svg>
