<svg width="547" height="120" viewBox="0 0 547 120" fill="none" xmlns="http://www.w3.org/2000/svg">
<path d="M478.059 51.2544C480.461 51.2526 482.861 51.2508 485.261 51.2508C485.479 51.7489 485.804 52.2018 486.231 52.5663C485.302 52.6258 484.373 52.6836 483.444 52.7161C481.693 52.7756 479.944 52.8369 478.197 52.8983C470.558 53.1671 462.918 53.436 455.284 53.7013C451.787 53.824 448.291 54.0044 444.794 54.055C439.332 54.1344 433.866 54.2156 428.402 54.2986C415.917 54.4826 403.429 54.6649 390.946 54.8525C366.707 55.2188 342.468 55.5707 318.231 55.928C300.875 56.186 283.523 56.693 266.171 57.1207C240.026 57.7685 213.878 58.4163 187.733 59.0641C182.493 59.194 177.25 59.5062 172.014 59.7408C157.173 60.4066 142.332 61.0689 127.494 61.7365C112.924 62.3879 98.356 63.0412 83.7853 63.6926C82.4361 63.754 81.089 63.8135 79.7397 63.8748C83.6662 63.5807 87.5934 63.2866 91.5204 63.0069C105.232 62.0289 118.945 61.0472 132.658 60.0674C137.446 59.7246 142.234 59.3836 147.024 59.0425C149.494 58.8657 151.97 58.7555 154.441 58.613C168.702 57.8064 182.96 56.9998 197.221 56.1914C200.007 56.0308 202.797 55.8215 205.587 55.7205C209.603 55.5743 213.621 55.43 217.637 55.2838C232.34 54.7515 247.043 54.2174 261.746 53.6851C264.98 53.5678 268.214 53.4504 271.448 53.3313C272.301 53.3007 273.153 53.2989 274.006 53.2826C276.277 53.2429 278.549 53.1978 280.82 53.1545C295.554 52.873 310.288 52.5915 325.02 52.3118C331.808 52.1819 338.595 52.0322 345.384 51.9798C367.29 51.8156 389.193 51.6027 411.1 51.5107C433.422 51.415 455.741 51.2707 478.059 51.2544ZM26.244 57.0449C30.3493 57.0846 34.4545 56.8573 38.5551 56.74C40.225 56.6895 41.894 56.6047 43.5616 56.5271C50.9152 56.1843 58.2688 55.845 65.6245 55.5022C74.4187 55.0943 83.2121 54.6558 92.0054 54.1993C104.566 53.5443 117.127 52.8893 129.684 52.2343C132.564 52.0845 135.444 51.9816 138.323 51.8571C145.642 51.5323 152.958 51.2129 160.277 50.8917C167.595 50.5705 174.914 50.2494 182.232 49.93C185.095 49.8037 187.965 49.6413 190.828 49.5547C202.505 49.2082 214.185 48.8689 225.86 48.5225C233.039 48.315 240.221 48.1021 247.4 47.8891C250.211 47.8079 253.026 47.6834 255.839 47.6455C267.127 47.4939 278.412 47.3279 289.702 47.1691C300.84 47.0139 311.981 46.8588 323.12 46.7018C326.06 46.6621 329.003 46.6801 331.941 46.6693C339.215 46.644 346.486 46.617 353.757 46.5917C365.064 46.5502 376.371 46.5195 387.681 46.469C391.379 46.451 395.078 46.4925 398.776 46.5033C406.516 46.5285 414.259 46.5556 422.003 46.5791C422.644 46.5827 423.283 46.5863 423.924 46.5899C406.495 46.8082 389.066 47.0284 371.636 47.272C364.359 47.3731 357.08 47.4723 349.801 47.5734C346.664 47.6167 343.518 47.6274 340.381 47.7032C329.85 47.9595 319.32 48.2373 308.793 48.5044C296.622 48.8112 284.452 49.1179 272.28 49.4247C270.235 49.477 268.191 49.5853 266.148 49.6755C259.668 49.9552 253.187 50.2331 246.705 50.5128C233.56 51.0776 220.415 51.6478 207.267 52.2108C205.32 52.2956 203.378 52.4237 201.436 52.5482C195.014 52.9614 188.592 53.3747 182.172 53.7915C170.671 54.5332 159.169 55.2694 147.67 56.0182C144.499 56.2239 141.332 56.5145 138.164 56.7653C130.799 57.3445 123.436 57.9237 116.071 58.5029C106.71 59.2392 97.3468 59.9502 87.9892 60.7153C74.9626 61.7763 61.9394 62.8373 48.9172 63.9037C45.7927 64.16 42.6686 64.4125 39.5439 64.6688C33.9446 65.1253 28.3627 65.7858 22.7748 66.3614C22.1842 66.421 21.6812 66.78 21.6812 67.3827C21.6812 67.9601 22.1782 68.3805 22.7748 68.4058C24.8164 68.4888 26.8596 68.5736 28.9012 68.653C28.65 69.1493 28.5023 69.6906 28.5023 70.2464C28.5023 72.1952 30.3259 74.1188 32.5071 73.9943C48.4776 73.0632 64.4412 72.0527 80.4254 71.3399C94.3013 70.7228 108.18 70.1056 122.054 69.4885C137.396 68.8064 152.737 68.1225 168.079 67.4386C172.911 67.2239 177.738 67.0092 182.568 66.7926C183.96 66.7331 185.358 66.6483 186.75 66.6158C211.464 66.0005 236.178 65.4032 260.892 64.7969C274.101 64.4739 287.307 64.1509 300.514 63.8261C305.287 63.7088 310.056 63.6096 314.829 63.5374C340.107 63.1693 365.385 62.8012 390.662 62.4295C401.492 62.2689 412.326 62.1029 423.156 61.9423C432.402 61.8033 441.653 61.7437 450.893 61.4207C458.53 61.1501 466.168 60.8795 473.808 60.6106C477.617 60.4771 481.436 60.3905 485.244 60.1667C493.915 59.656 502.584 59.1399 511.254 58.5968C511.246 58.6076 511.24 58.6184 511.232 58.6274C510.744 59.4088 510.613 60.3561 510.869 61.2277C511.116 62.0704 511.721 62.8012 512.528 63.2415C513.287 63.6583 514.453 63.9001 515.308 63.5825C517.198 62.8787 519.081 62.1606 520.954 61.428C520.915 61.4442 520.877 61.4587 520.838 61.4749C520.977 61.419 521.114 61.3648 521.255 61.3107C521.415 61.2475 521.576 61.1844 521.736 61.1213C521.678 61.1429 521.62 61.1664 521.56 61.1898C522.562 60.7964 523.56 60.4012 524.559 60.0078C525.605 59.6 526.654 59.1887 527.694 58.761C528.83 58.2991 529.915 57.736 531.007 57.1911C532.243 56.5758 533 55.2279 533 53.9449C532.996 53.2646 532.815 52.6349 532.45 52.0466C531.967 51.2725 531.027 50.4785 530.046 50.3179C529.079 50.161 528.113 50.0401 527.138 49.9228C526.926 49.8993 526.708 49.8885 526.486 49.8885C525.829 49.8885 525.144 49.9751 524.514 50.0166C523.043 50.114 521.579 50.3179 520.108 50.419C518.905 50.5002 517.708 50.5814 516.507 50.6608C513.271 50.8809 510.041 51.1011 506.809 51.3176C505.973 51.3736 505.137 51.4204 504.301 51.4728C504.604 51.1498 504.824 50.7817 504.95 50.3631C505.102 50.031 505.185 49.6828 505.206 49.3219C505.241 49.0656 505.278 48.8076 505.316 48.5514C505.314 48.2175 505.251 47.9 505.137 47.595C505.22 47.5589 505.305 47.5265 505.388 47.4904C505.996 47.1529 506.483 46.7 506.844 46.1279C507.212 45.5361 507.396 44.8974 507.398 44.2117C507.396 43.526 507.212 42.8908 506.844 42.2989C506.633 42.0427 506.421 41.7865 506.208 41.5284C505.703 41.0593 505.106 40.7344 504.417 40.5522C503.169 40.1065 501.862 40 500.543 40C499.464 40 498.377 40.0722 497.307 40.083C495.755 40.0956 494.201 40.1119 492.645 40.1263C490.445 40.148 488.246 40.1768 486.047 40.1877C480.239 40.2147 474.426 40.24 468.618 40.2707C463.152 40.2995 457.686 40.2941 452.22 40.2923C447.252 40.2851 442.284 40.2833 437.318 40.3032C417.514 40.3844 397.714 40.4132 377.913 40.6009C363.064 40.7398 348.216 40.8806 333.366 41.0214C326.728 41.0863 320.094 41.1819 313.456 41.3118C298.577 41.6042 283.697 41.9001 268.818 42.1943C264.574 42.2791 260.33 42.3639 256.089 42.4469C253.629 42.4974 251.167 42.6165 248.707 42.7031C234.002 43.2246 219.295 43.7461 204.591 44.2658C200.102 44.4264 195.614 44.5852 191.125 44.7458C188.609 44.8306 186.094 44.9894 183.578 45.1139C168.971 45.8483 154.364 46.5827 139.757 47.3135C132.216 47.6907 124.68 48.1165 117.144 48.5622C104.24 49.3237 91.3364 50.087 78.4334 50.8448C67.2537 51.4998 56.0695 52.0682 44.8875 52.6799C43.1137 52.7756 41.342 52.873 39.5734 52.9687C36.711 53.1257 33.8436 53.2322 30.9768 53.3512C28.4366 53.4577 25.8814 53.5226 23.3328 53.4613C23.0764 52.8442 22.433 52.3407 21.6984 52.3948C20.0543 52.5175 18.4139 52.6836 16.7735 52.8478C15.9771 52.9272 15.2868 53.2971 15.0607 54.0676C14.8095 54.9175 15.36 55.8992 16.302 56.1103C17.0149 56.2709 17.7244 56.4368 18.4402 56.5902C19.1416 56.74 19.8823 56.7797 20.5928 56.8393C22.4722 56.9945 24.3602 57.0305 26.244 57.0449Z" fill="#1A1817"/>
</svg>
